<svg xmlns="http://www.w3.org/2000/svg" viewBox="0 0 150 149.42"><title>Asset 6</title><g id="Layer_2" data-name="Layer 2"><g id="Layer_1-2" data-name="Layer 1"><g id="_3-no-feels" data-name="3-no-feels"><path d="M113.71,98.32H36.29a2.5,2.5,0,1,0,0,5H113.7a2.5,2.5,0,0,0,0-5Z"/><circle cx="45.37" cy="57.49" r="10.55"/><path d="M45.37,51.93a5.56,5.56,0,1,1-5.55,5.56A5.56,5.56,0,0,1,45.37,51.93Z"/><circle cx="104.63" cy="57.49" r="10.55"/><path d="M104.63,51.93a5.56,5.56,0,1,1-5.56,5.56A5.56,5.56,0,0,1,104.63,51.93Z"/><path d="M132.42,7A10.56,10.56,0,0,1,143,17.58V131.83a10.56,10.56,0,0,1-10.55,10.55H17.58A10.56,10.56,0,0,1,7,131.83V17.58A10.56,10.56,0,0,1,17.58,7H132.42m0-7H17.58A17.58,17.58,0,0,0,0,17.58V131.83a17.58,17.58,0,0,0,17.58,17.59H132.42A17.59,17.59,0,0,0,150,131.83V17.58A17.58,17.58,0,0,0,132.42,0Z"/></g></g></g></svg>