<svg xmlns="http://www.w3.org/2000/svg" viewBox="0 0 24 24"><defs><style>.cls-1{fill:$theme_yellow;}</style></defs><title>Asset 16</title><g id="Layer_2" data-name="Layer 2"><g id="Layer_1-2" data-name="Layer 1"><path class="cls-1" d="M18.7,17.79H16.06V13.32c0-1.24-.5-1.9-1.41-1.9-1.08,0-1.57.75-1.57,1.9v4.47H10.51V9.27h2.57v1.16A2.93,2.93,0,0,1,15.64,9c1.82,0,3.06,1.08,3.06,3.39v5.38M7.45,8.19A1.62,1.62,0,0,1,5.88,6.62,1.57,1.57,0,0,1,7.45,5.05,1.62,1.62,0,0,1,9,6.62,1.57,1.57,0,0,1,7.45,8.19m1.32,9.6H6.12V9.27H8.77ZM12,0A12,12,0,1,0,24,12,12,12,0,0,0,12,0"/></g></g></svg>